<svg viewBox="0 -1 110 112" xmlns="http://www.w3.org/2000/svg">
  <g fill="none" fill-rule="evenodd" stroke="#ffffff00">
      <path d="m100 34.6671c0-5.104-2.771-9.861-7.231-12.414l-35.538-20.333c-2.195-1.256-4.696-1.92-7.231-1.92s-5.036.664-7.231 1.92l-35.538 20.333c-4.46 2.553-7.231 7.31-7.231 12.414v40.666c0 5.105 2.771 9.861 7.232 12.413l35.536 20.333c2.196 1.257 4.697 1.921 7.232 1.921s5.036-.664 7.231-1.921l35.538-20.333c2.325-1.33 4.184-3.263 5.438-5.528 1.152-2.08 1.793-4.442 1.793-6.885z" fill="#336799"/>
      <path d="m59.1367 64.6173c-.147.12-.355.282-.593.461-.119-.094-.24-.19-.296-.259-1.109-1.343-3.634-5.099-4.154-5.73-.38-.461-1.045-1.21-1.263-1.285.634-1.066 1.742-2.984 2.85-4.859.228.309.469.632.731.985 0 0 1.112 1.729 2.08 4.27.607 1.283.902 3.252.902 3.252l.399.139c.017.338.068.755.148 1.186-.194.883-.494 1.457-.804 1.84m8.512-29.498 1.717-6.572.164-.264s.513-.417.799-.857c0 0 .223-.332.287-.68 0 0 .134-.45.237-.716 7.452 6.76 18.53 16.816 22.719 20.647v-12.01c0-2.845-1.532-5.474-4.018-6.897l-35.536-20.333c-1.243-.711-2.63-1.067-4.018-1.067-1.387 0-2.774.356-4.017 1.067l-35.536 20.333c-2.487 1.423-4.018 4.052-4.018 6.897v12.01c5.061-4.569 21.943-19.718 21.943-19.718.151-.135.386-.259.682-.259.327 0 .561.144.712.291l7.495 7.223c.363.362.397.916.166 1.261l-6.398 9.603c-.32.504-.155 1.077.203 1.356.398.313.956.316 1.353-.052l29.658-26.935c.201-.183.468-.255.675-.255s.476.071.676.255c0 0 2.275 2.063 5.605 5.082-.066.125-.155.287-.28.504 0 0-.248.48-.368.819-.073.208-.232.678-.319 1.054-.054.236-.222.857-.222.857s-.076.349-.12.484c-.379 1.165-1.49 3.064-1.654 3.397l-1.032 2.282s-.687 1.437-1.187 3.312c0 0-2.254 3-4.385 5.856l-.006-.012c-.215.215-.716.564-1.27.715-.292-.384-.659-.944-.683-.976-.057-.079-.174-.299-.097-.582.078-.283.489-.855.489-.855.196-.201.227-.528.121-.684-.107-.159-.297-.246-.361-.283-.061-.036-.117-.167-.108-.261.009-.095-.158-.164-.158-.164l-.299.075-.075.009.017-.381s-.011-.092-.141-.107c-.064-.008-.286-.199-.274-.269.013-.07.07-.262.07-.553 0-.239-.225-.203-.225-.203s-.981-.019-1.051-.028c-.068-.008-.306-.141-.377-.232-.07-.092-.183-.194-.183-.194-.155-.084-1.097-.26-1.235-.248-.137.011-.734-.094-.79-.144-.056-.052-.338-.171-.558-.289-.22-.117-1.053.513-1.258.655-.204.14-.978.972-1.442 1.763-.098.166-.164.324-.217.485-.001.001-.002 0-.004.001l-.453.969s-.187.097-.281.187c-.193.173-.295.54-.295.54s-.214 1.09-.351 1.588c0 0-.129.939-.209 1.324-.048.234-.21 1.624-.247 1.844-.037.219-.131 1.248-.131 1.248s-.078.611-.077.993c.001.312.191.455.235.488.043.032.331.222.331.222s-.261 1.33.337 2.31c0 0 .025-.307.326-.822 0 0 .389.343.158 1.289 0 0 .538-.224.624-1.298l.209-.677s.103.666.802 1.036c0 0-.538-1.218-.57-1.727-.035-.576.046-1.15.046-1.15s.256.335.188 1.01c0 0 .534-1.276-.158-3.383-.152-.547-.345-1.58-.558-2.469-.047-.192-.155-.971-.168-1.109-.019-.182.083-.275.083-.275.026.009.258.245.345.303.079.19.212.462.449.777l.047.046s.552.686 1.824 1.105c.011.005.032.014.038.017.14.059.637.174 1.079.178.49.003.736-.167.978-.223.235-.055.469.125.469.125s.242.307.509.644l-.001.015s.158.293.001.596c-.835.843-2.006 2.23-1.985 3.404 0 0 .005.008.005.009-1.336 2.852-3.131 7.364-3.334 7.823 0 0-.24.568-.25 1.003-.024.322.315.553.523.82.127.163.475.671.625.849.559.66 1.112 1.175 1.778 1.836l4.718 4.218c-.389.241-.804.478-1.232.684.046 1.83 2.707 4.286 2.707 4.286 1.974.084 2.843-1.716 2.843-1.716-.03-1.739-1.514-4.001-1.514-4.001l-.262-.43c.196-.324.356-.678.489-1.06.118.327.258.648.451.936 0 0 1.042 1.466 2.752 1.757.671.555 4.324 3.36 10.863 4.634.051.11.101.23.151.374.124.363.51 1.751.629 2.059.229.585.714 1.642 1.464 2.82l1.812 2.849.423-.068c.171.275.365.709.213 1.107 0 0-1.409.948.033 2.706 0 0 .315.205.601.165.514-.072 1.17.091 1.989 1.015 0 0 1.068 1.256 2.195 1.085l.9-.257s.782-.197-.571-1.915c-.956-1.214-1.097-1.667-1.558-2.117s-1.068-.846-1.068-.846l-.916-2.373.148-.29-1.246-2.821-2.18-5.247c-.104-.321.01-.896-.367-1.313.002-.002-.167-.199-.317-.298-.23-.164-.48-.315-.74-.447l-6.573-4.283s2.12.112 7.732-3.53c.642.6 2.056 1.285 3.127 1.542 2.005.482 4.07 1.285 4.07 1.285s.156-.08.244-.404c0 0 1.244.282 2.227.851.085.065.128.141.175.251 0 0-.147.239-.125.375.023.136.5.318.5.318s.773 1.249 1.48.911c0 0 .888-.277 1.083-.879 0 0 .203-1.032 1.759-1.624 0 0 1.556-.592 1.898-1.644 0 0 .531-1.225-1.546-.769l-2.664.915-1.702.561-2.393-1.272c.003-.128-.029-.173-.029-.173l-1.675-.776c-.903-.573-3.136-1.968-4.552-2.644-.357-.201-.778-.422-.777-.424-.688-.34-.571-.657-1.956-.229l-9.731 2.693c-.387-.757-1.268-2.572-1.475-3.81l-1.13-3.604s1.377-1.126.776-2.348c0 0-.092-.217-.725-.748 0 0-.668-.556-1.488-1.347 1.484-2.898 3.646-6.926 4.213-8.343 0 0 .66-1.299 1.038-3.025" fill="#fff"/>
  </g>
</svg>
